<svg xmlns="http://www.w3.org/2000/svg" viewBox="0 0 1000 330" width="1000" height="330" font-family="Segoe UI, Helvetica, Arial, sans-serif">
<rect width="1000" height="330" fill="#ffffff"/>
<text x="134" y="24" text-anchor="middle" font-size="14" font-weight="600" fill="#1f2937">On disk</text>
<text x="134" y="38" text-anchor="middle" font-size="10.5" fill="#6b7280">read from the .roi file</text>
<rect x="24" y="44" width="220" height="190" fill="#141414" stroke="rgb(77,158,242)" stroke-width="1.5"/>
<path d="M24 234 L24 114 Q134 74 244 124 L244 234 Z" fill="#474747"/>
<polygon points="109.35677126159655,64.23430148874921 131.35677126159658,220.2343014887492 163.04322873840346,215.7656985112508 141.04322873840346,59.7656985112508" fill="none" stroke="rgb(77,158,242)" stroke-width="1"/>
<line x1="125.2" y1="62" x2="147.20000000000002" y2="218" stroke="rgb(77,158,242)" stroke-width="1.25"/>
<circle cx="125.2" cy="62" r="3.5" fill="none" stroke="rgb(77,158,242)" stroke-width="1.5"/>
<line x1="146.54322873840346" y1="98.76569851125079" x2="114.85677126159656" y2="103.23430148874921" stroke="rgb(77,158,242)" stroke-width="2.25"/>
<rect x="107.54322873840346" y="100.76569851125079" width="78" height="13" fill="rgb(77,158,242)"/>
<text x="146.54322873840346" y="110.76569851125079" text-anchor="middle" font-size="9" fill="#101010">surface (auto)</text>
<text x="134" y="259" text-anchor="middle" font-size="10.5" fill="#6b7280">no badge; drawn in the tile's own color</text>
<text x="378" y="24" text-anchor="middle" font-size="14" font-weight="600" fill="#1f2937">Editing, unchanged</text>
<text x="378" y="38" text-anchor="middle" font-size="10.5" fill="#6b7280">Edit ROI pressed, nothing moved</text>
<rect x="268" y="44" width="220" height="190" fill="#141414" stroke="rgb(255,217,26)" stroke-width="1.5"/>
<path d="M268 234 L268 114 Q378 74 488 124 L488 234 Z" fill="#474747"/>
<polygon points="353.3567712615965,64.23430148874921 375.3567712615966,220.23430148874922 407.0432287384035,215.76569851125078 385.04322873840346,59.76569851125079" fill="none" stroke="rgb(255,217,26)" stroke-width="1.25"/>
<line x1="369.2" y1="62" x2="391.20000000000005" y2="218" stroke="rgb(255,217,26)" stroke-width="1.75"/>
<circle cx="369.2" cy="62" r="3.5" fill="none" stroke="rgb(255,217,26)" stroke-width="1.5"/>
<line x1="390.54322873840346" y1="98.76569851125079" x2="358.8567712615965" y2="103.23430148874921" stroke="rgb(255,217,26)" stroke-width="2.75"/>
<rect x="369.04322873840346" y="100.76569851125079" width="43" height="13" fill="rgb(255,217,26)"/>
<text x="390.54322873840346" y="110.76569851125079" text-anchor="middle" font-size="9" fill="rgb(26,26,26)">surface</text>
<rect x="325.5" y="246" width="105" height="18" fill="rgb(255,217,26)"/>
<text x="378" y="259" text-anchor="middle" font-size="10.5" font-weight="700" fill="rgb(26,26,26)">ROI FROM FILE</text>
<text x="622" y="24" text-anchor="middle" font-size="14" font-weight="600" fill="#1f2937">Unsaved</text>
<text x="622" y="38" text-anchor="middle" font-size="10.5" fill="#6b7280">dragged, drawn, or surface moved</text>
<rect x="512" y="44" width="220" height="190" fill="#141414" stroke="rgb(255,89,26)" stroke-width="1.5"/>
<path d="M512 234 L512 114 Q622 74 732 124 L732 234 Z" fill="#474747"/>
<polygon points="597.3567712615966,64.23430148874921 619.3567712615966,220.2343014887492 651.0432287384035,215.7656985112508 629.0432287384035,59.7656985112508" fill="none" stroke="rgb(255,89,26)" stroke-width="2.5" stroke-dasharray="8 5"/>
<line x1="613.2" y1="62" x2="635.2" y2="218" stroke="rgb(255,89,26)" stroke-width="3" stroke-dasharray="8 5"/>
<rect x="609.2" y="58" width="8" height="8" fill="none" stroke="rgb(255,89,26)" stroke-width="1.5"/>
<line x1="634.5432287384035" y1="98.76569851125079" x2="602.8567712615966" y2="103.23430148874921" stroke="rgb(255,89,26)" stroke-width="4"/>
<rect x="613.0432287384035" y="100.76569851125079" width="43" height="13" fill="rgb(255,89,26)"/>
<text x="634.5432287384035" y="110.76569851125079" text-anchor="middle" font-size="9" fill="rgb(255,255,255)">surface</text>
<rect x="569.5" y="246" width="105" height="18" fill="rgb(255,89,26)"/>
<text x="622" y="259" text-anchor="middle" font-size="10.5" font-weight="700" fill="rgb(255,255,255)">UNSAVED EDITS</text>
<text x="622" y="278" text-anchor="middle" font-size="10" fill="#6b7280">or, for a line that has no file yet:</text>
<rect x="555.5" y="284" width="133" height="18" fill="rgb(255,89,26)"/>
<text x="622" y="297" text-anchor="middle" font-size="10.5" font-weight="700" fill="#ffffff">UNSAVED - NEW ROI</text>
<text x="866" y="24" text-anchor="middle" font-size="14" font-weight="600" fill="#1f2937">Saved</text>
<text x="866" y="38" text-anchor="middle" font-size="10.5" fill="#6b7280">Save ROI wrote .roi, values.csv, surface</text>
<rect x="756" y="44" width="220" height="190" fill="#141414" stroke="rgb(26,179,89)" stroke-width="1.5"/>
<path d="M756 234 L756 114 Q866 74 976 124 L976 234 Z" fill="#474747"/>
<polygon points="841.3567712615966,64.23430148874921 863.3567712615966,220.2343014887492 895.0432287384035,215.7656985112508 873.0432287384035,59.7656985112508" fill="none" stroke="rgb(26,179,89)" stroke-width="1.75"/>
<line x1="857.2" y1="62" x2="879.2" y2="218" stroke="rgb(26,179,89)" stroke-width="2.25"/>
<circle cx="857.2" cy="62" r="3.5" fill="none" stroke="rgb(26,179,89)" stroke-width="1.5"/>
<line x1="878.5432287384035" y1="98.76569851125079" x2="846.8567712615966" y2="103.23430148874921" stroke="rgb(26,179,89)" stroke-width="3.25"/>
<rect x="857.0432287384035" y="100.76569851125079" width="43" height="13" fill="rgb(26,179,89)"/>
<text x="878.5432287384035" y="110.76569851125079" text-anchor="middle" font-size="9" fill="rgb(255,255,255)">surface</text>
<rect x="813.5" y="246" width="105" height="18" fill="rgb(26,179,89)"/>
<text x="866" y="259" text-anchor="middle" font-size="10.5" font-weight="700" fill="rgb(255,255,255)">SAVED TO DISK</text>
<text x="500" y="320" text-anchor="middle" font-size="10.5" font-style="italic" fill="#6b7280">Schematic of the styles in roiStateStyle.m and drawRoiOverlay.m (colors, weights, dashes, badge text) — not a screenshot.</text>
</svg>